# Blender v2.82 (sub 7) OBJ File: ''
# www.blender.org
mtllib ground.mtl
o Cube_Cube.001
v -0.712628 -0.058279 0.644267
v -0.712628 0.058279 0.644267
v -0.712628 -0.058279 -0.644267
v -0.712628 0.058279 -0.644267
v 0.712628 -0.058279 0.644267
v 0.712628 0.058279 0.644267
v 0.712628 -0.058279 -0.644267
v 0.712628 0.058279 -0.644267
v 0.943261 -0.024644 0.358195
v 0.943261 0.024644 0.358195
v 0.943261 -0.024644 -0.358195
v 0.943261 0.024644 -0.358195
v 1.545957 -0.024644 0.358195
v 1.545957 0.024644 0.358195
v 1.545957 -0.024644 -0.358195
v 1.545957 0.024644 -0.358195
v 1.783807 0.116809 0.527373
v 1.783807 0.166097 0.527373
v 1.575315 0.116809 -0.645453
v 1.575315 0.166097 -0.645453
v 2.377200 0.116809 0.421886
v 2.377200 0.166097 0.421886
v 2.168708 0.116809 -0.750940
v 2.168708 0.166097 -0.750940
v 2.583388 0.278462 0.225388
v 2.583388 0.327750 0.225388
v 2.192184 0.278462 -0.899756
v 2.192184 0.327750 -0.899756
v 3.152657 0.278462 0.027458
v 3.152657 0.327750 0.027458
v 2.761452 0.278462 -1.097686
v 2.761452 0.327750 -1.097686
v 3.234733 0.263772 1.578745
v 3.234733 0.342440 1.578745
v 3.246635 0.263772 -2.457065
v 3.246635 0.342440 -2.457065
v 5.276656 0.263772 1.584767
v 5.276656 0.342440 1.584767
v 5.288560 0.263772 -2.451043
v 5.288560 0.342440 -2.451043
vt 0.375000 0.000000
vt 0.625000 0.000000
vt 0.625000 0.250000
vt 0.375000 0.250000
vt 0.625000 0.500000
vt 0.375000 0.500000
vt 0.625000 0.750000
vt 0.375000 0.750000
vt 0.625000 1.000000
vt 0.375000 1.000000
vt 0.125000 0.500000
vt 0.125000 0.750000
vt 0.875000 0.500000
vt 0.875000 0.750000
vt 0.375000 0.000000
vt 0.625000 0.000000
vt 0.625000 0.250000
vt 0.375000 0.250000
vt 0.625000 0.500000
vt 0.375000 0.500000
vt 0.625000 0.750000
vt 0.375000 0.750000
vt 0.625000 1.000000
vt 0.375000 1.000000
vt 0.125000 0.500000
vt 0.125000 0.750000
vt 0.875000 0.500000
vt 0.875000 0.750000
vt 0.375000 0.000000
vt 0.625000 0.000000
vt 0.625000 0.250000
vt 0.375000 0.250000
vt 0.625000 0.500000
vt 0.375000 0.500000
vt 0.625000 0.750000
vt 0.375000 0.750000
vt 0.625000 1.000000
vt 0.375000 1.000000
vt 0.125000 0.500000
vt 0.125000 0.750000
vt 0.875000 0.500000
vt 0.875000 0.750000
vt 0.375000 0.000000
vt 0.625000 0.000000
vt 0.625000 0.250000
vt 0.375000 0.250000
vt 0.625000 0.500000
vt 0.375000 0.500000
vt 0.625000 0.750000
vt 0.375000 0.750000
vt 0.625000 1.000000
vt 0.375000 1.000000
vt 0.125000 0.500000
vt 0.125000 0.750000
vt 0.875000 0.500000
vt 0.875000 0.750000
vt 0.375000 0.000000
vt 0.625000 0.000000
vt 0.625000 0.250000
vt 0.375000 0.250000
vt 0.625000 0.500000
vt 0.375000 0.500000
vt 0.625000 0.750000
vt 0.375000 0.750000
vt 0.625000 1.000000
vt 0.375000 1.000000
vt 0.125000 0.500000
vt 0.125000 0.750000
vt 0.875000 0.500000
vt 0.875000 0.750000
vn -1.0000 0.0000 0.0000
vn 0.0000 0.0000 -1.0000
vn 1.0000 0.0000 0.0000
vn 0.0000 0.0000 1.0000
vn 0.0000 -1.0000 0.0000
vn 0.0000 1.0000 0.0000
vn -0.9846 0.0000 0.1750
vn -0.1750 0.0000 -0.9846
vn 0.9846 0.0000 -0.1750
vn 0.1750 0.0000 0.9846
vn -0.9445 0.0000 0.3284
vn -0.3284 0.0000 -0.9445
vn 0.9445 0.0000 -0.3284
vn 0.3284 0.0000 0.9445
vn -1.0000 0.0000 -0.0029
vn 0.0029 0.0000 -1.0000
vn 1.0000 0.0000 0.0029
vn -0.0029 0.0000 1.0000
usemtl None
s off
f 1/1/1 2/2/1 4/3/1 3/4/1
f 3/4/2 4/3/2 8/5/2 7/6/2
f 7/6/3 8/5/3 6/7/3 5/8/3
f 5/8/4 6/7/4 2/9/4 1/10/4
f 3/11/5 7/6/5 5/8/5 1/12/5
f 8/5/6 4/13/6 2/14/6 6/7/6
f 9/15/1 10/16/1 12/17/1 11/18/1
f 11/18/2 12/17/2 16/19/2 15/20/2
f 15/20/3 16/19/3 14/21/3 13/22/3
f 13/22/4 14/21/4 10/23/4 9/24/4
f 11/25/5 15/20/5 13/22/5 9/26/5
f 16/19/6 12/27/6 10/28/6 14/21/6
f 17/29/7 18/30/7 20/31/7 19/32/7
f 19/32/8 20/31/8 24/33/8 23/34/8
f 23/34/9 24/33/9 22/35/9 21/36/9
f 21/36/10 22/35/10 18/37/10 17/38/10
f 19/39/5 23/34/5 21/36/5 17/40/5
f 24/33/6 20/41/6 18/42/6 22/35/6
f 25/43/11 26/44/11 28/45/11 27/46/11
f 27/46/12 28/45/12 32/47/12 31/48/12
f 31/48/13 32/47/13 30/49/13 29/50/13
f 29/50/14 30/49/14 26/51/14 25/52/14
f 27/53/5 31/48/5 29/50/5 25/54/5
f 32/47/6 28/55/6 26/56/6 30/49/6
f 33/57/15 34/58/15 36/59/15 35/60/15
f 35/60/16 36/59/16 40/61/16 39/62/16
f 39/62/17 40/61/17 38/63/17 37/64/17
f 37/64/18 38/63/18 34/65/18 33/66/18
f 35/67/5 39/62/5 37/64/5 33/68/5
f 40/61/6 36/69/6 34/70/6 38/63/6
